<svg width="56" height="56" viewBox="0 0 56 56" fill="none" xmlns="http://www.w3.org/2000/svg">
<path d="M28 54.9526C42.9117 54.9526 55 42.8749 55 27.9763C55 13.0777 42.9117 1 28 1C13.0883 1 1 13.0777 1 27.9763C1 42.8749 13.0883 54.9526 28 54.9526Z" fill="white"/>
<path d="M28 55.1026C42.9944 55.1026 55.15 42.9579 55.15 27.9763C55.15 12.9947 42.9944 0.85 28 0.85C13.0056 0.85 0.85 12.9947 0.85 27.9763C0.85 42.9579 13.0056 55.1026 28 55.1026Z" stroke="black" stroke-opacity="0.2" stroke-width="0.3"/>
<path d="M35.3913 43.9225H21.1871C20.7018 43.9225 20.2365 43.7295 19.8933 43.3859C19.5502 43.0423 19.3574 42.5762 19.3574 42.0903C19.3574 41.6033 19.5498 41.136 19.8926 40.7905C20.2354 40.445 20.7007 40.2493 21.1871 40.2461H35.3913C35.8777 40.2493 36.343 40.445 36.6858 40.7905C37.0286 41.136 37.221 41.6033 37.221 42.0903C37.221 42.5762 37.0282 43.0423 36.6851 43.3859C36.342 43.7295 35.8766 43.9225 35.3913 43.9225Z" fill="#263238"/>
<path d="M29.0957 10.4374H27.8438V16.7535H29.0957V10.4374Z" fill="#263238"/>
<path d="M10.0637 35.691C12.0847 35.691 13.7231 34.0504 13.7231 32.0267C13.7231 30.0029 12.0847 28.3623 10.0637 28.3623C8.04267 28.3623 6.4043 30.0029 6.4043 32.0267C6.4043 34.0504 8.04267 35.691 10.0637 35.691Z" fill="#BC6FF1"/>
<path d="M47.0676 35.4508C49.0886 35.4508 50.727 33.8102 50.727 31.7864C50.727 29.7626 49.0886 28.1221 47.0676 28.1221C45.0465 28.1221 43.4082 29.7626 43.4082 31.7864C43.4082 33.8102 45.0465 35.4508 47.0676 35.4508Z" fill="#BC6FF1"/>
<path d="M29.0119 15.4286C29.0119 15.4286 43.9143 15.2478 46.2736 28.1815C48.633 41.1152 36.0297 41.3442 32.4065 41.5853C30.7694 41.6937 27.2545 41.7058 24.1488 41.6576C17.2754 41.537 12.4243 40.2111 10.7752 33.8226C10.5775 33.073 10.4526 32.3061 10.402 31.5324C9.96867 24.5412 14.6873 15.0911 29.0119 15.4286Z" fill="#BC6FF1"/>
<path d="M18.2016 35.1118L39.869 35.4493C40.9588 35.4654 42.0106 35.0481 42.7936 34.2889C43.5766 33.5297 44.027 32.4905 44.046 31.3992C44.0589 30.308 43.639 29.2561 42.8786 28.4743C42.1181 27.6925 41.0791 27.2445 39.9894 27.2287L18.322 26.8911C17.7819 26.8816 17.2452 26.9788 16.7428 27.1773C16.2403 27.3758 15.782 27.6717 15.3939 28.048C15.0059 28.4242 14.6958 28.8735 14.4815 29.37C14.2672 29.8664 14.1528 30.4004 14.145 30.9412C14.137 31.482 14.2357 32.019 14.4354 32.5216C14.6351 33.0241 14.9319 33.4822 15.3088 33.8697C15.6856 34.2571 16.1352 34.5663 16.6316 34.7794C17.128 34.9926 17.6615 35.1055 18.2016 35.1118Z" fill="#263238"/>
<path d="M35.3664 30.9509C35.3982 31.1214 35.4634 31.2839 35.5582 31.4291C35.653 31.5742 35.7755 31.6991 35.9187 31.7966C36.062 31.8941 36.2231 31.9623 36.3927 31.9971C36.5624 32.0319 36.7372 32.0328 36.9072 31.9996C37.0905 31.9811 37.2679 31.9245 37.428 31.8334C37.5882 31.7423 37.7276 31.6189 37.8374 31.4708C37.9472 31.3227 38.0249 31.1533 38.0656 30.9734C38.1063 30.7936 38.1091 30.6072 38.0738 30.4262C38.0385 30.2452 37.9658 30.0736 37.8605 29.9223C37.7552 29.771 37.6196 29.6433 37.4622 29.5475C37.3048 29.4517 37.1292 29.3898 36.9466 29.3658C36.764 29.3418 36.5784 29.3562 36.4017 29.408C36.2325 29.4412 36.0715 29.5075 35.9279 29.603C35.7843 29.6985 35.6609 29.8214 35.5648 29.9647C35.4686 30.108 35.4017 30.2688 35.3676 30.438C35.3336 30.6073 35.3332 30.7815 35.3664 30.9509Z" fill="white"/>
<path d="M20.2352 30.7101C20.2537 30.8936 20.3103 31.0712 20.4012 31.2316C20.4921 31.392 20.6155 31.5316 20.7633 31.6415C20.9112 31.7514 21.0804 31.8293 21.26 31.87C21.4396 31.9108 21.6257 31.9136 21.8065 31.8782C21.9873 31.8428 22.1586 31.7701 22.3097 31.6647C22.4608 31.5592 22.5883 31.4234 22.684 31.2658C22.7797 31.1082 22.8415 30.9324 22.8655 30.7495C22.8895 30.5667 22.8751 30.3808 22.8233 30.2039C22.7304 29.8867 22.5226 29.6157 22.2406 29.444C21.9586 29.2723 21.6227 29.2122 21.2987 29.2756C20.9748 29.3389 20.6862 29.5212 20.4895 29.7865C20.2927 30.0519 20.2021 30.3813 20.2352 30.7101Z" fill="white"/>
<path d="M30.5269 10.3549C30.5293 10.7631 30.4106 11.1628 30.1859 11.5033C29.9612 11.8439 29.6405 12.1099 29.2646 12.2678C28.8887 12.4256 28.4745 12.4682 28.0744 12.39C27.6743 12.3119 27.3064 12.1165 27.0174 11.8287C26.7283 11.5409 26.531 11.1737 26.4506 10.7736C26.3702 10.3734 26.4103 9.95834 26.5657 9.581C26.7211 9.20366 26.985 8.88104 27.3237 8.65401C27.6625 8.42699 28.0609 8.30579 28.4685 8.30579C29.0124 8.30578 29.5341 8.52127 29.9198 8.90522C30.3055 9.28916 30.5238 9.81035 30.5269 10.3549Z" fill="#BC6FF1"/>
<path d="M31.5752 30.3518C31.5752 30.3518 31.6595 30.4482 31.7077 30.6652C31.7453 30.9731 31.7166 31.2855 31.6234 31.5813C31.4911 32.039 31.2422 32.4544 30.9011 32.7867C30.4839 33.2041 29.9352 33.4639 29.3483 33.522C28.7614 33.5708 28.1755 33.4177 27.6872 33.088C27.3007 32.8258 26.9828 32.4744 26.7603 32.0635C26.6177 31.7866 26.5356 31.4825 26.5195 31.1715C26.5195 30.9545 26.5195 30.8339 26.5918 30.8339C26.664 30.8339 26.7121 31.292 27.1094 31.8585C27.3411 32.1725 27.6313 32.4385 27.964 32.642C28.3666 32.8817 28.8332 32.9912 29.3002 32.9554C29.7485 32.8979 30.1686 32.7045 30.5039 32.401C30.8073 32.1489 31.05 31.8317 31.2141 31.4728C31.5271 30.846 31.4789 30.3518 31.5752 30.3518Z" fill="white"/>
<path d="M14.1562 51.1418C14.1562 51.1418 18.586 46.8145 27.8428 46.8145C37.0996 46.8145 41.8424 51.1418 41.8424 51.1418C37.6648 53.6658 32.8784 54.9998 27.9993 54.9998C23.1202 54.9998 18.3338 53.6658 14.1562 51.1418Z" fill="#BC6FF1"/>
</svg>